<?xml version="1.0" encoding="utf-8"?>
<!-- Generator: Adobe Illustrator 18.0.0, SVG Export Plug-In . SVG Version: 6.00 Build 0)  -->
<!DOCTYPE svg PUBLIC "-//W3C//DTD SVG 1.1//EN" "http://www.w3.org/Graphics/SVG/1.1/DTD/svg11.dtd">
<svg version="1.1" id="Layer_1" xmlns="http://www.w3.org/2000/svg" xmlns:xlink="http://www.w3.org/1999/xlink" x="0px" y="0px"
	 viewBox="0 0 100 100" enable-background="new 0 0 100 100" xml:space="preserve">
<path d="M32.3,19.9l-2.6,3.8l-1,1.7l0.2,7.2l-0.6,3.2l-0.4,5.6l-0.6,4l-1.9,5.6l-0.6,3.4l-1.8,5.1l0.3,3.5l1.7,1.9l3.1,0.3l6.5,0.5
	h7.3l3.5-0.6l4,2.6l5.4,0.9l10.2-0.1l10.3,0.1l2.1-0.5l3.3-2.5l0.1-4.2l-3.6-2l-3.5-1.1l-4.8-0.1h-5.5h-4l1.7-2.9l1.4-5.2l0.5-7.6
	l-0.5-4.7l-0.5-4.4l-1.9-2.7L56.5,28l-3.4-3l-3.2-2.8l-3.5-9l-3-4.9l-3.1-1.9l-1.6,1.3l-2.7,4.7L32.3,19.9z M36.6,19l-2.1,2.8
	l2.1-0.6l0.8-2.2l1.5,0.1l2.2-0.5h1.1l-1.6-4l-4,3C36.6,17.5,36.6,19,36.6,19z M33.3,30.6l3.1,4l4-0.4l5.5-1.5l2.4,3.5l2,5.7
	l1.5,3.4l-1.3,2l-1.2,0.9L47.4,49l-4.5,1.4l-2.5,3.1L39.4,55l-4,1.3l-3.6,1l0.6-3.5v-2.9v-3.4v-2.8l0.3-3l0.6-1.4l1.9-0.7l0.2-1.8
	l-1.4-2.5l-1-1.5L33.3,30.6z"/>
</svg>
