<?xml version="1.0" encoding="utf-8"?>
<!-- Generator: Adobe Illustrator 18.0.0, SVG Export Plug-In . SVG Version: 6.00 Build 0)  -->
<!DOCTYPE svg PUBLIC "-//W3C//DTD SVG 1.1//EN" "http://www.w3.org/Graphics/SVG/1.1/DTD/svg11.dtd">
<svg version="1.1" id="Your_Icon" xmlns="http://www.w3.org/2000/svg" xmlns:xlink="http://www.w3.org/1999/xlink" x="0px" y="0px"
	 viewBox="0 0 100 100" enable-background="new 0 0 100 100" xml:space="preserve">
<path d="M50,28.9c-1,0.5-2.3,1.1-3.8,2.1c0,0,0,0.1,0,0.1c-0.2,1-1.7,6.6-4.1,11.5c0,0,0,0.1,0,0.1c-0.3,9-2.6,14.2-6.9,15.4
	c-0.1,0-0.3,0.1-0.4,0.1c-0.6,0-1.2-0.4-1.3-1c-0.2-0.7,0.2-1.5,1-1.7c1.3-0.4,3.4-1.9,4.4-7.6c-1.1,1.3-2.4,2.3-3.7,2.7
	c-0.4,0.1-0.9,0.2-1.5,0.2c-1.2,0-2.6-0.4-4.1-1.8c-0.6-0.5-0.6-1.4-0.1-2s1.4-0.6,2-0.1c1.4,1.2,2.3,1.1,2.9,1
	c1.8-0.6,3.6-3,5.1-6.2c0-0.1,0.1-0.2,0.1-0.3c1.2-2.5,2.3-5.4,3.1-7.9c-2.9,2.3-5.9,5.4-7.6,9.4c-0.2,0.5-0.7,0.8-1.3,0.8
	c-0.2,0-0.4,0-0.5-0.1c-0.7-0.3-1-1.1-0.7-1.8c1-2.4,2.4-4.4,3.9-6.2c-0.5-1.6-1.2-2.7-2-2.9C33.8,32.4,33,33,33,33
	c-0.6,0.5-1.5,0.4-2-0.2c-0.5-0.6-0.4-1.5,0.2-2c0.2-0.2,2-1.5,4.1-0.9c1.4,0.4,2.5,1.5,3.3,3.3c0.4-0.4,0.8-0.8,1.2-1.1
	c0.3-1.7,0.1-3-0.6-4.1c-1.1-1.6-3.1-1.9-3.1-2c-0.8-0.1-1.3-0.8-1.2-1.6c0.1-0.8,0.8-1.3,1.6-1.2c0.1,0,3.2,0.5,5,3.1
	c0.7,1,1.1,2.2,1.2,3.5c3.1-2.2,6-3.5,7.3-4.1V5.6h-3.7v18c0,0,0,0,0,0c-1.2-1.8-2.3-3.2-3.8-4.1c-1-0.6-2.1-0.9-3.6-1.1
	c-1.3-0.1-2.6,0.1-3.8,0.8c-2.4,1.4-3.8,4.3-5,6.7c-1.5,3-2.8,6.2-3.8,9.5c-1.9,6.3-3,13.1-3.1,19.6c-0.3,12.9,0.7,12.5,13.9,9.7
	C50.3,62,48.2,54.3,46.4,50c-1.9-4.3,2.9-5.8,3.6-14.6c0.1-0.7,0.1-1.4,0-2.2C50,33.3,50,28.9,50,28.9z"/>
<path d="M52.9,28.9c1,0.5,2.3,1.1,3.8,2.1c0,0,0,0.1,0,0.1c0.3,1,1.7,6.6,4.1,11.5c0,0,0,0.1,0,0.1c0.3,9,2.6,14.2,6.9,15.4
	c0.1,0,0.3,0.1,0.4,0.1c0.6,0,1.2-0.4,1.3-1c0.2-0.7-0.2-1.5-1-1.7c-1.3-0.4-3.4-1.9-4.4-7.6c1.1,1.3,2.4,2.3,3.7,2.7
	c0.4,0.1,0.9,0.2,1.5,0.2c1.2,0,2.6-0.4,4.1-1.8c0.6-0.5,0.6-1.4,0.1-2c-0.5-0.6-1.4-0.6-2-0.1c-1.4,1.2-2.3,1.1-2.9,1
	c-1.8-0.6-3.6-3-5.1-6.2c0-0.1-0.1-0.2-0.1-0.3c-1.2-2.5-2.3-5.4-3.1-7.9c2.9,2.3,5.9,5.4,7.6,9.4c0.2,0.5,0.7,0.8,1.3,0.8
	c0.2,0,0.4,0,0.5-0.1c0.7-0.3,1-1.1,0.7-1.8c-1-2.4-2.4-4.4-3.9-6.2c0.5-1.6,1.2-2.7,2-2.9C69.2,32.4,70,33,70,33
	c0.6,0.5,1.5,0.4,2-0.2c0.5-0.6,0.4-1.5-0.2-2c-0.2-0.2-2-1.5-4.1-0.9c-1.4,0.4-2.5,1.5-3.3,3.3c-0.4-0.4-0.8-0.8-1.2-1.1
	c-0.3-1.7-0.1-3,0.6-4.1c1.1-1.6,3.1-1.9,3.1-2c0.8-0.1,1.3-0.8,1.2-1.6c-0.1-0.8-0.8-1.3-1.6-1.2c-0.1,0-3.2,0.5-5,3.1
	c-0.7,1-1.1,2.2-1.2,3.5c-3.1-2.2-6-3.5-7.3-4.1V5.6h3.7v18c0,0,0,0,0,0c1.2-1.8,2.3-3.2,3.8-4.1c1-0.6,2.1-0.9,3.6-1.1
	c1.3-0.1,2.6,0.1,3.8,0.8c2.4,1.4,3.8,4.3,5,6.7c1.5,3,2.8,6.2,3.8,9.5c1.9,6.3,3,13.1,3.1,19.6c0.3,12.9-0.7,12.5-13.9,9.7
	C52.6,62,54.7,54.3,56.6,50c1.9-4.3-2.9-5.8-3.6-14.6c-0.1-0.7-0.1-1.4,0-2.2L52.9,28.9L52.9,28.9z"/>
</svg>
